<?xml version="1.0" encoding="UTF-8" standalone="no"?>
<svg xmlns="http://www.w3.org/2000/svg" viewBox="0 0 512 512">
  <defs>
    <linearGradient id="gradient" x1="0%" y1="0%" x2="100%" y2="100%">
      <stop offset="0%" stop-color="#4a9dff" />
      <stop offset="100%" stop-color="#2a5caa" />
    </linearGradient>
  </defs>
  <rect x="56" y="56" width="400" height="400" rx="48" fill="url(#gradient)" />
  <g fill="#ffffff">
    <!-- Document icon -->
    <path d="M160 120 L320 120 L360 160 L360 392 L160 392 Z" opacity="0.9" />
    <path d="M320 120 L320 160 L360 160" opacity="0.9" />
    
    <!-- Text lines -->
    <rect x="180" y="200" width="160" height="12" rx="6" opacity="0.9" />
    <rect x="180" y="230" width="140" height="12" rx="6" opacity="0.9" />
    <rect x="180" y="260" width="160" height="12" rx="6" opacity="0.9" />
    <rect x="180" y="290" width="130" height="12" rx="6" opacity="0.9" />
    <rect x="180" y="320" width="150" height="12" rx="6" opacity="0.9" />
    
    <!-- Microphone -->
    <circle cx="400" cy="140" r="30" fill="#ff5252" />
    <path d="M390 140 L390 155 C390 160.5 394.5 165 400 165 C405.5 165 410 160.5 410 155 L410 140 Z" fill="white" />
    <path d="M385 140 C385 132.3 391.3 126 400 126 C408.7 126 415 132.3 415 140" stroke="white" stroke-width="4" fill="none" />
    <path d="M400 165 L400 175 M390 175 L410 175" stroke="white" stroke-width="4" fill="none" />
  </g>

  <!-- AI assistant badge -->
  <circle cx="130" cy="370" r="36" fill="#33cc77" />
  <path d="M115 370 L145 370 M130 355 L130 385 M115 355 L145 385 M115 385 L145 355" stroke="white" stroke-width="5" fill="none" />
</svg>
